<svg xmlns="http://www.w3.org/2000/svg" aria-hidden="true" style="position:absolute;width:0;height:0;overflow:hidden">
  <defs>
    <symbol id="icon-2" viewBox="0 0 32 32">
      <path fill="#fff" d="M16 32c8.837 0 16-7.163 16-16S24.837 0 16 0 0 7.163 0 16s7.163 16 16 16z" style="fill:var(--color1, #fff)"/>
      <path fill="#fd9222" d="M16.548 17.081a.777.777 0 0 1-.845.169.777.777 0 0 1-.251-.169l-3.535-3.543a.777.777 0 0 0-.845-.169.777.777 0 0 0-.476.713c0 .204.081.4.225.544l3.543 3.543a2.314 2.314 0 0 0 3.272 0l3.543-3.543a.771.771 0 0 0-1.095-1.088l-3.535 3.543z" style="fill:var(--color2, #fd9222)"/>
    </symbol>
    <symbol id="icon-chocolate" viewBox="0 0 32 32">
      <path fill="#fcf1e0" d="M3.944 20.076 14.721 2.652l.64-.674 8.236 5.491.056 3.314 2.01 3.28-8.88 14.077-12.839-8.063z" style="fill:var(--color3, #fcf1e0)"/>
      <path fill="none" stroke="#fd9222" stroke-linecap="round" stroke-linejoin="round" stroke-width="2.667" d="M21.635 23.88 7.45 15.016m3.911-6.417 14.186 8.864M10.63 25.864l11.736-19.25m4.81 8.175c-3.04-1.899-4.234-3.384-2.278-6.592l-9.626-6.015-11.736 19.25 14.185 8.864 9.454-15.507z" style="stroke:var(--color2, #fd9222)"/>
    </symbol>
    <symbol id="icon-Ellipse-1" viewBox="0 0 32 32">
      <path fill="#4c4c4c" stroke="#eceded" stroke-width="4" d="M30 16c0 7.732-6.268 14-14 14S2 23.732 2 16 8.268 2 16 2s14 6.268 14 14z" style="fill:var(--color4, #4c4c4c);stroke:var(--color5, #eceded)"/>
    </symbol>
    <symbol id="icon-icons-1" viewBox="0 0 32 32">
      <path fill="none" stroke="#fff" stroke-width=".516" d="M16 .258C24.694.258 31.742 7.306 31.742 16S24.694 31.742 16 31.742.258 24.694.258 16 7.306.258 16 .258z" style="stroke:var(--color1, #fff)"/>
      <path fill="#fd9222" d="M16 9.118c-3.785 0-6.882 3.097-6.882 6.882s3.097 6.882 6.882 6.882 6.882-3.097 6.882-6.882c0-3.785-3.097-6.882-6.882-6.882zm0 12.387c-3.028 0-5.505-2.477-5.505-5.505s2.477-5.505 5.505-5.505 5.505 2.477 5.505 5.505-2.477 5.505-5.505 5.505z" style="fill:var(--color2, #fd9222)"/>
      <path fill="#fd9222" d="M16.895 15.312h-1.789c-.344 0-.619-.275-.619-.619s.275-.619.619-.619h2.546c.413 0 .688-.275.688-.688s-.275-.688-.688-.688h-.963v-.619c0-.413-.275-.688-.688-.688s-.688.275-.688.688v.619h-.206c-1.101 0-1.996.895-1.996 1.996s.895 1.996 1.996 1.996h1.72c.344 0 .619.275.619.619s-.275.619-.619.619h-2.546c-.413 0-.688.275-.688.688s.275.688.688.688h1.032v.619c0 .413.275.688.688.688s.688-.275.688-.688v-.619h.206c1.101 0 1.996-.895 1.996-1.996s-.895-1.996-1.996-1.996z" style="fill:var(--color2, #fd9222)"/>
    </symbol>
    <symbol id="icon-icons-2" viewBox="0 0 32 32">
      <path fill="none" stroke="#fff" stroke-width=".516" d="M16 .258C24.694.258 31.742 7.306 31.742 16S24.694 31.742 16 31.742.258 24.694.258 16 7.306.258 16 .258z" style="stroke:var(--color1, #fff)"/>
      <path fill="#fd9222" d="M15.717 15.022a2.66 2.66 0 0 1-.607-1.694c0-2.232 2.674-4.46 5.348-4.46a2.675 2.675 0 0 1 2.674 2.675c0 2.675-2.228 5.349-4.462 5.349a2.662 2.662 0 0 1-1.694-.607l-6.585 6.586a.893.893 0 0 1-1.262-1.262l6.588-6.586z" style="fill:var(--color2, #fd9222)"/>
    </symbol>
    <symbol id="icon-icons" viewBox="0 0 32 32">
      <path fill="none" stroke="#fff" stroke-width=".516" d="M16 .258C24.694.258 31.742 7.306 31.742 16S24.694 31.742 16 31.742.258 24.694.258 16 7.306.258 16 .258z" style="stroke:var(--color1, #fff)"/>
      <path d="m14.876 8.987 3.885 3.89.041-.041a.442.442 0 0 1 .611-.007l.451.451a.438.438 0 0 1 .043.565l-.002.004-.074.099 3.179 3.179a.72.72 0 0 1 0 1.022l-4.867 4.867a.72.72 0 0 1-1.022 0l-2.295-2.295c-.038.048-.086.087-.14.116s-.114.045-.175.048a.444.444 0 0 1-.333-.127l-1.342-1.342a.442.442 0 0 1-.007-.611l.003-.004.04-.039-3.885-3.885a.72.72 0 0 1 0-1.022l4.867-4.867a.72.72 0 0 1 1.022 0v.001zm3.397 4.377-.906-.906a.301.301 0 0 0-.338-.069.29.29 0 0 0-.1.069l-1.848 1.848c-.029.029-.053.064-.068.102s-.024.079-.024.12a.31.31 0 0 0 .092.222l.903.903.315-.315-.808-.808 1.657-1.662.81.812.316-.316zm-2.62 2.618-.905-.905a.301.301 0 0 0-.338-.069.29.29 0 0 0-.1.069l-1.853 1.853a.306.306 0 0 0 0 .439l.904.904.318-.318-.81-.807 1.662-1.657.807.807.316-.315zm-3.358-4.011 1.848 1.848c.124.124.32.124.439-.005l1.848-1.848a.296.296 0 0 0 .093-.217h.005a.318.318 0 0 0-.093-.222l-1.848-1.848a.31.31 0 0 0-.444 0l-1.848 1.853a.306.306 0 0 0 0 .439zm-2.617 2.616 1.848 1.848c.124.124.32.124.439 0l1.848-1.848a.293.293 0 0 0 .093-.222h.005a.308.308 0 0 0-.093-.222l-1.848-1.848a.301.301 0 0 0-.338-.069.29.29 0 0 0-.1.069l-1.853 1.853a.306.306 0 0 0 0 .439zm3.579 4.519 1.219 1.22 4.973-6.73-.338-.338-5.854 5.849z" style="fill:var(--color6, #000)"/>
      <path fill="#fd9222" d="m14.876 8.987 3.885 3.89.041-.041a.442.442 0 0 1 .611-.007l.451.451a.438.438 0 0 1 .043.565l-.002.004-.074.099 3.179 3.179a.72.72 0 0 1 0 1.022l-4.867 4.867a.72.72 0 0 1-1.022 0l-2.295-2.295c-.038.048-.086.087-.14.116s-.114.045-.175.048a.444.444 0 0 1-.333-.127l-1.342-1.342a.442.442 0 0 1-.007-.611l.003-.004.04-.039-3.885-3.885a.72.72 0 0 1 0-1.022l4.867-4.867a.72.72 0 0 1 1.022 0v.001zm3.397 4.377-.906-.906a.301.301 0 0 0-.338-.069.29.29 0 0 0-.1.069l-1.848 1.848c-.029.029-.053.064-.068.102s-.024.079-.024.12a.31.31 0 0 0 .092.222l.903.903.315-.315-.808-.808 1.657-1.662.81.812.316-.316zm-2.62 2.618-.905-.905a.301.301 0 0 0-.338-.069.29.29 0 0 0-.1.069l-1.853 1.853a.306.306 0 0 0 0 .439l.904.904.318-.318-.81-.807 1.662-1.657.807.807.316-.315zm-3.358-4.011 1.848 1.848c.124.124.32.124.439-.005l1.848-1.848a.296.296 0 0 0 .093-.217h.005a.318.318 0 0 0-.093-.222l-1.848-1.848a.31.31 0 0 0-.444 0l-1.848 1.853a.306.306 0 0 0 0 .439zm-2.617 2.616 1.848 1.848c.124.124.32.124.439 0l1.848-1.848a.293.293 0 0 0 .093-.222h.005a.308.308 0 0 0-.093-.222l-1.848-1.848a.301.301 0 0 0-.338-.069.29.29 0 0 0-.1.069l-1.853 1.853a.306.306 0 0 0 0 .439zm3.579 4.519 1.219 1.22 4.973-6.73-.338-.338-5.854 5.849z" style="fill:var(--color2, #fd9222)"/>
    </symbol>
    <symbol id="icon-instagram" viewBox="0 0 32 32">
      <path stroke-linecap="round" stroke-linejoin="round" stroke-width="2.667" d="M22.667 2.667H9.334a6.667 6.667 0 0 0-6.667 6.667v13.333a6.667 6.667 0 0 0 6.667 6.667h13.333a6.667 6.667 0 0 0 6.667-6.667V9.334a6.667 6.667 0 0 0-6.667-6.667z"/>
      <path stroke-linecap="round" stroke-linejoin="round" stroke-width="2.667" d="M21.333 15.16a5.329 5.329 0 0 1-2.878 5.546 5.337 5.337 0 0 1-6.169-.992 5.33 5.33 0 0 1 1.316-8.505 5.336 5.336 0 0 1 6.228.962 5.328 5.328 0 0 1 1.504 2.989zM23.333 8.667h.013"/>
    </symbol>
    <symbol id="icon-twitter" viewBox="0 0 32 32">
      <path stroke-linecap="round" stroke-linejoin="round" stroke-width="2.667" d="M30.667 4a14.542 14.542 0 0 1-4.187 2.04 5.975 5.975 0 0 0-6.637-1.661A5.981 5.981 0 0 0 16 10.04v1.333c-2.343.061-4.665-.459-6.759-1.513S4.68 6.297 3.333 4.379c0 0-4.667 12.954 7.333 18.287a15.519 15.519 0 0 1-9.333 2.667C13.333 32 28 25.333 28 10a5.966 5.966 0 0 0-.107-1.107A10.288 10.288 0 0 0 30.666 4z"/>
    </symbol>
  </defs>
</svg>
